{
  "accessors": [
    {
      "bufferView": 2,
      "componentType": 5126,
      "count": 461,
      "max": [
        5.0,
        50.0,
        5.0
      ],
      "min": [
        -5.0,
        -50.0,
        -5.0
      ],
      "type": "VEC3"
    },
    {
      "bufferView": 2,
      "byteOffset": 5532,
      "componentType": 5126,
      "count": 461,
      "max": [
        1.0,
        1.0,
        1.0
      ],
      "min": [
        -1.0,
        -1.0,
        -1.0
      ],
      "type": "VEC3"
    },
    {
      "bufferView": 3,
      "componentType": 5126,
      "count": 461,
      "max": [
        1.0,
        1.0,
        1.0,
        1.0
      ],
      "min": [
        -0.9932098388671875,
        -1.0,
        -1.0,
        1.0
      ],
      "type": "VEC4"
    },
    {
      "bufferView": 1,
      "componentType": 5126,
      "count": 461,
      "max": [
        0.9856526851654053,
        0.9983319640159607
      ],
      "min": [
        0.001668028300628066,
        0.35825681686401367
      ],
      "type": "VEC2"
    },
    {
      "bufferView": 0,
      "componentType": 5125,
      "count": 1890,
      "type": "SCALAR"
    },
    {
      "bufferView": 2,
      "byteOffset": 11064,
      "componentType": 5126,
      "count": 641,
      "max": [
        100.35309600830078,
        50.0,
        5.0
      ],
      "min": [
        -100.35309600830078,
        -50.0,
        -5.0
      ],
      "type": "VEC3"
    },
    {
      "bufferView": 2,
      "byteOffset": 18756,
      "componentType": 5126,
      "count": 641,
      "max": [
        1.0,
        1.0,
        1.0
      ],
      "min": [
        -1.0,
        -1.0,
        -1.0
      ],
      "type": "VEC3"
    },
    {
      "bufferView": 3,
      "byteOffset": 7376,
      "componentType": 5126,
      "count": 641,
      "max": [
        1.0,
        1.0,
        1.0,
        1.0
      ],
      "min": [
        -0.9932098984718323,
        -1.0,
        -1.0,
        -1.0
      ],
      "type": "VEC4"
    },
    {
      "bufferView": 1,
      "byteOffset": 3688,
      "componentType": 5126,
      "count": 641,
      "max": [
        0.9950248599052429,
        0.9983319640159607
      ],
      "min": [
        0.001668028300628066,
        0.35825681686401367
      ],
      "type": "VEC2"
    },
    {
      "bufferView": 0,
      "byteOffset": 7560,
      "componentType": 5125,
      "count": 2250,
      "type": "SCALAR"
    },
    {
      "bufferView": 2,
      "byteOffset": 26448,
      "componentType": 5126,
      "count": 1743,
      "max": [
        202.63690185546875,
        50.0,
        5.0
      ],
      "min": [
        -202.63690185546875,
        -50.0,
        -5.0
      ],
      "type": "VEC3"
    },
    {
      "bufferView": 2,
      "byteOffset": 47364,
      "componentType": 5126,
      "count": 1743,
      "max": [
        1.0,
        1.0,
        1.0
      ],
      "min": [
        -1.0,
        -1.0,
        -1.0
      ],
      "type": "VEC3"
    },
    {
      "bufferView": 3,
      "byteOffset": 17632,
      "componentType": 5126,
      "count": 1743,
      "max": [
        1.0,
        1.0,
        1.0,
        1.0
      ],
      "min": [
        -1.0,
        -1.0,
        -1.0,
        -1.0
      ],
      "type": "VEC4"
    },
    {
      "bufferView": 1,
      "byteOffset": 8816,
      "componentType": 5126,
      "count": 1743,
      "max": [
        0.9950248599052429,
        0.9983319640159607
      ],
      "min": [
        0.001668028300628066,
        0.35825681686401367
      ],
      "type": "VEC2"
    },
    {
      "bufferView": 0,
      "byteOffset": 16560,
      "componentType": 5125,
      "count": 6390,
      "type": "SCALAR"
    }
  ],
  "asset": {
    "extras": {
      "author": "adventurer (https://sketchfab.com/ahmagh2e)",
      "license": "CC-BY-4.0 (http://creativecommons.org/licenses/by/4.0/)",
      "source": "https://sketchfab.com/3d-models/wooden-fence-building-farm-3a1e2a4bcbcf4a66a465e34e8ac5fb8f",
      "title": "Wooden fence Building Farm"
    },
    "generator": "Sketchfab-15.82.0",
    "version": "2.0"
  },
  "bufferViews": [
    {
      "buffer": 0,
      "byteLength": 42120,
      "name": "floatBufferViews",
      "target": 34963
    },
    {
      "buffer": 0,
      "byteLength": 22760,
      "byteOffset": 42120,
      "byteStride": 8,
      "name": "floatBufferViews",
      "target": 34962
    },
    {
      "buffer": 0,
      "byteLength": 68280,
      "byteOffset": 64880,
      "byteStride": 12,
      "name": "floatBufferViews",
      "target": 34962
    },
    {
      "buffer": 0,
      "byteLength": 45520,
      "byteOffset": 133160,
      "byteStride": 16,
      "name": "floatBufferViews",
      "target": 34962
    }
  ],
  "buffers": [
    {
      "byteLength": 178680,
      "uri": "scene.bin"
    }
  ],
  "images": [
    {
      "uri": "textures/material_baseColor.png"
    },
    {
      "uri": "textures/material_metallicRoughness.png"
    },
    {
      "uri": "textures/material_normal.png"
    }
  ],
  "materials": [
    {
      "doubleSided": true,
      "name": "material",
      "normalTexture": {
        "index": 2
      },
      "pbrMetallicRoughness": {
        "baseColorTexture": {
          "index": 0
        },
        "metallicFactor": 0.0,
        "metallicRoughnessTexture": {
          "index": 1
        }
      }
    }
  ],
  "meshes": [
    {
      "name": "Cube_4_Mat_0",
      "primitives": [
        {
          "attributes": {
            "NORMAL": 1,
            "POSITION": 0,
            "TANGENT": 2,
            "TEXCOORD_0": 3
          },
          "indices": 4,
          "material": 0,
          "mode": 4
        }
      ]
    },
    {
      "name": "Cube_3_Mat_0",
      "primitives": [
        {
          "attributes": {
            "NORMAL": 6,
            "POSITION": 5,
            "TANGENT": 7,
            "TEXCOORD_0": 8
          },
          "indices": 9,
          "material": 0,
          "mode": 4
        }
      ]
    },
    {
      "name": "Cube_1_Mat_0",
      "primitives": [
        {
          "attributes": {
            "NORMAL": 11,
            "POSITION": 10,
            "TANGENT": 12,
            "TEXCOORD_0": 13
          },
          "indices": 14,
          "material": 0,
          "mode": 4
        }
      ]
    }
  ],
  "nodes": [
    {
      "children": [
        1
      ],
      "matrix": [
        1.0,
        0.0,
        0.0,
        0.0,
        0.0,
        2.220446049250313e-16,
        -1.0,
        0.0,
        0.0,
        1.0,
        2.220446049250313e-16,
        0.0,
        0.0,
        0.0,
        0.0,
        1.0
      ],
      "name": "Sketchfab_model"
    },
    {
      "children": [
        2
      ],
      "matrix": [
        0.009999999776482582,
        0.0,
        0.0,
        0.0,
        0.0,
        0.0,
        0.009999999776482582,
        0.0,
        0.0,
        -0.009999999776482582,
        0.0,
        0.0,
        0.0,
        0.0,
        0.0,
        1.0
      ],
      "name": "bdc238742f7b4fa6835a48e11efd0d58.fbx"
    },
    {
      "children": [
        3,
        5,
        7
      ],
      "name": "RootNode"
    },
    {
      "children": [
        4
      ],
      "matrix": [
        1.0,
        0.0,
        0.0,
        0.0,
        0.0,
        1.0,
        0.0,
        0.0,
        0.0,
        0.0,
        1.0,
        0.0,
        -450.35107421875,
        50.0,
        0.0,
        1.0
      ],
      "name": "Cube_4"
    },
    {
      "mesh": 0,
      "name": "Cube_4_Mat_0"
    },
    {
      "children": [
        6
      ],
      "matrix": [
        -1.0,
        -1.2246467991473535e-16,
        1.224646799147353e-16,
        0.0,
        -1.2246467991473535e-16,
        1.0,
        -1.2246467991473535e-16,
        0.0,
        -1.224646799147353e-16,
        -1.2246467991473535e-16,
        -1.0,
        0.0,
        -589.3525390625,
        50.0,
        3.667805466354805e-14,
        1.0
      ],
      "name": "Cube_3"
    },
    {
      "mesh": 1,
      "name": "Cube_3_Mat_0"
    },
    {
      "children": [
        8
      ],
      "matrix": [
        1.0,
        0.0,
        0.0,
        0.0,
        0.0,
        1.0,
        0.0,
        0.0,
        0.0,
        0.0,
        1.0,
        0.0,
        -197.63690185546875,
        50.0,
        6.164375976662961e-16,
        1.0
      ],
      "name": "Cube_1"
    },
    {
      "mesh": 2,
      "name": "Cube_1_Mat_0"
    }
  ],
  "samplers": [
    {
      "magFilter": 9729,
      "minFilter": 9987,
      "wrapS": 10497,
      "wrapT": 10497
    }
  ],
  "scene": 0,
  "scenes": [
    {
      "name": "Sketchfab_Scene",
      "nodes": [
        0
      ]
    }
  ],
  "textures": [
    {
      "sampler": 0,
      "source": 0
    },
    {
      "sampler": 0,
      "source": 1
    },
    {
      "sampler": 0,
      "source": 2
    }
  ]
}
