{
  "accessors": [
    {
      "bufferView": 2,
      "componentType": 5126,
      "count": 24065,
      "max": [
        -21.25802230834961,
        22.623939514160156,
        -21.576000213623047
      ],
      "min": [
        -53.95757293701172,
        -0.902471661567688,
        -69.28156280517578
      ],
      "type": "VEC3"
    },
    {
      "bufferView": 2,
      "byteOffset": 288780,
      "componentType": 5126,
      "count": 24065,
      "max": [
        0.9999726414680481,
        0.9998869299888611,
        0.9998965263366699
      ],
      "min": [
        -0.9999988675117493,
        -0.9998888373374939,
        -0.9998964667320251
      ],
      "type": "VEC3"
    },
    {
      "bufferView": 1,
      "componentType": 5126,
      "count": 24065,
      "max": [
        3.3382341861724854,
        2.402939558029175
      ],
      "min": [
        -2.2581560611724854,
        -1.1434283256530762
      ],
      "type": "VEC2"
    },
    {
      "bufferView": 0,
      "componentType": 5125,
      "count": 158916,
      "type": "SCALAR"
    },
    {
      "bufferView": 2,
      "byteOffset": 577560,
      "componentType": 5126,
      "count": 65532,
      "max": [
        -20.83087158203125,
        26.32424545288086,
        -21.14910125732422
      ],
      "min": [
        -54.78179931640625,
        -0.8819340467453003,
        -69.29954528808594
      ],
      "type": "VEC3"
    },
    {
      "bufferView": 2,
      "byteOffset": 1363944,
      "componentType": 5126,
      "count": 65532,
      "max": [
        1.0,
        1.0,
        1.0
      ],
      "min": [
        -1.0,
        -1.0,
        -1.0
      ],
      "type": "VEC3"
    },
    {
      "bufferView": 3,
      "componentType": 5126,
      "count": 65532,
      "max": [
        1.0,
        1.0,
        1.0,
        1.0
      ],
      "min": [
        -1.0,
        -1.0,
        -1.0,
        -1.0
      ],
      "type": "VEC4"
    },
    {
      "bufferView": 1,
      "byteOffset": 192520,
      "componentType": 5126,
      "count": 65532,
      "max": [
        6.393509864807129,
        4.450039386749268
      ],
      "min": [
        -5.720311641693115,
        -3.4340758323669434
      ],
      "type": "VEC2"
    },
    {
      "bufferView": 0,
      "byteOffset": 635664,
      "componentType": 5125,
      "count": 439611,
      "type": "SCALAR"
    },
    {
      "bufferView": 2,
      "byteOffset": 2150328,
      "componentType": 5126,
      "count": 16802,
      "max": [
        -20.92938804626465,
        24.714696884155273,
        -21.17865753173828
      ],
      "min": [
        -54.650787353515625,
        -0.7087981700897217,
        -69.24992370605469
      ],
      "type": "VEC3"
    },
    {
      "bufferView": 2,
      "byteOffset": 2351952,
      "componentType": 5126,
      "count": 16802,
      "max": [
        0.9999995827674866,
        1.0,
        1.0
      ],
      "min": [
        -0.9999989867210388,
        -1.0,
        -1.0
      ],
      "type": "VEC3"
    },
    {
      "bufferView": 3,
      "byteOffset": 1048512,
      "componentType": 5126,
      "count": 16802,
      "max": [
        0.9999966621398926,
        0.9999980926513672,
        1.0,
        1.0
      ],
      "min": [
        -0.9999993443489075,
        -0.9999986886978149,
        -1.0,
        -1.0
      ],
      "type": "VEC4"
    },
    {
      "bufferView": 1,
      "byteOffset": 716776,
      "componentType": 5126,
      "count": 16802,
      "max": [
        5.344557762145996,
        3.584500789642334
      ],
      "min": [
        -2.2837913036346436,
        -1.5282360315322876
      ],
      "type": "VEC2"
    },
    {
      "bufferView": 0,
      "byteOffset": 2394108,
      "componentType": 5125,
      "count": 112323,
      "type": "SCALAR"
    },
    {
      "bufferView": 2,
      "byteOffset": 2553576,
      "componentType": 5126,
      "count": 112,
      "max": [
        -20.9361572265625,
        11.195420265197754,
        -21.190670013427734
      ],
      "min": [
        -48.98255920410156,
        -0.2783969044685364,
        -69.27166748046875
      ],
      "type": "VEC3"
    },
    {
      "bufferView": 2,
      "byteOffset": 2554920,
      "componentType": 5126,
      "count": 112,
      "max": [
        0.9937509894371033,
        0.9995295405387878,
        0.9672845005989075
      ],
      "min": [
        -0.9937534928321838,
        -0.9995296597480774,
        -0.9672840237617493
      ],
      "type": "VEC3"
    },
    {
      "bufferView": 1,
      "byteOffset": 851192,
      "componentType": 5126,
      "count": 112,
      "max": [
        0.875,
        1.0
      ],
      "min": [
        0.125,
        -0.0
      ],
      "type": "VEC2"
    },
    {
      "bufferView": 0,
      "byteOffset": 2843400,
      "componentType": 5125,
      "count": 696,
      "type": "SCALAR"
    },
    {
      "bufferView": 2,
      "byteOffset": 2556264,
      "componentType": 5126,
      "count": 178,
      "max": [
        -27.170806884765625,
        18.347373962402344,
        -39.321598052978516
      ],
      "min": [
        -28.048568725585938,
        13.736051559448242,
        -39.37666702270508
      ],
      "type": "VEC3"
    },
    {
      "bufferView": 2,
      "byteOffset": 2558400,
      "componentType": 5126,
      "count": 178,
      "max": [
        0.02075638435781002,
        0.024258963763713837,
        -0.9991528987884521
      ],
      "min": [
        -0.038180336356163025,
        -0.03595812991261482,
        -0.9997520446777344
      ],
      "type": "VEC3"
    },
    {
      "bufferView": 1,
      "byteOffset": 852088,
      "componentType": 5126,
      "count": 178,
      "max": [
        2.5542783737182617,
        1.9280821084976196
      ],
      "min": [
        -1.7442928552627563,
        -0.2372487634420395
      ],
      "type": "VEC2"
    },
    {
      "bufferView": 0,
      "byteOffset": 2846184,
      "componentType": 5125,
      "count": 948,
      "type": "SCALAR"
    },
    {
      "bufferView": 2,
      "byteOffset": 2560536,
      "componentType": 5126,
      "count": 16334,
      "max": [
        -27.385164260864258,
        26.627361297607422,
        -28.219236373901367
      ],
      "min": [
        -33.69567108154297,
        22.15538215637207,
        -34.344635009765625
      ],
      "type": "VEC3"
    },
    {
      "bufferView": 2,
      "byteOffset": 2756544,
      "componentType": 5126,
      "count": 16334,
      "max": [
        0.9828992486000061,
        0.9999988675117493,
        0.9765965938568115
      ],
      "min": [
        -0.9829468131065369,
        -0.9999997615814209,
        -0.9765397310256958
      ],
      "type": "VEC3"
    },
    {
      "bufferView": 3,
      "byteOffset": 1317344,
      "componentType": 5126,
      "count": 16334,
      "max": [
        0.9996470808982849,
        0.9999991655349731,
        0.9999889731407166,
        1.0
      ],
      "min": [
        -0.9998730421066284,
        -0.9999997615814209,
        -0.9998902082443237,
        -1.0
      ],
      "type": "VEC4"
    },
    {
      "bufferView": 1,
      "byteOffset": 853512,
      "componentType": 5126,
      "count": 16334,
      "max": [
        2.5585615634918213,
        1.7734482288360596
      ],
      "min": [
        0.01365119218826294,
        -0.009713828563690186
      ],
      "type": "VEC2"
    },
    {
      "bufferView": 0,
      "byteOffset": 2849976,
      "componentType": 5125,
      "count": 120264,
      "type": "SCALAR"
    }
  ],
  "asset": {
    "extras": {
      "author": "abi (https://sketchfab.com/abicreates.jpg)",
      "license": "CC-BY-4.0 (http://creativecommons.org/licenses/by/4.0/)",
      "source": "https://sketchfab.com/3d-models/saloon-5dfedab06f574d1a83e9a8ee44d1fe92",
      "title": "Saloon"
    },
    "generator": "Sketchfab-16.12.0",
    "version": "2.0"
  },
  "bufferViews": [
    {
      "buffer": 0,
      "byteLength": 3331032,
      "name": "floatBufferViews",
      "target": 34963
    },
    {
      "buffer": 0,
      "byteLength": 984184,
      "byteOffset": 3331032,
      "byteStride": 8,
      "name": "floatBufferViews",
      "target": 34962
    },
    {
      "buffer": 0,
      "byteLength": 2952552,
      "byteOffset": 4315216,
      "byteStride": 12,
      "name": "floatBufferViews",
      "target": 34962
    },
    {
      "buffer": 0,
      "byteLength": 1578688,
      "byteOffset": 7267768,
      "byteStride": 16,
      "name": "floatBufferViews",
      "target": 34962
    }
  ],
  "buffers": [
    {
      "byteLength": 8846456,
      "uri": "scene.bin"
    }
  ],
  "extensionsRequired": [
    "KHR_materials_pbrSpecularGlossiness"
  ],
  "extensionsUsed": [
    "KHR_materials_pbrSpecularGlossiness"
  ],
  "images": [
    {
      "uri": "textures/phong1_diffuse.png"
    },
    {
      "uri": "textures/wood_attempt_2_specularGlossiness.png"
    },
    {
      "uri": "textures/wood_attempt_2_normal.png"
    },
    {
      "uri": "textures/wood_attempt_2_occlusion.png"
    },
    {
      "uri": "textures/texture_for_writing_1_diffuse.png"
    },
    {
      "uri": "textures/texture_for_writing_1_normal.png"
    },
    {
      "uri": "textures/texture_for_writing_1_occlusion.png"
    }
  ],
  "materials": [
    {
      "doubleSided": true,
      "extensions": {
        "KHR_materials_pbrSpecularGlossiness": {
          "diffuseFactor": [
            1.0,
            1.0,
            1.0,
            1.0
          ],
          "diffuseTexture": {
            "index": 0
          },
          "glossinessFactor": 0.0,
          "specularFactor": [
            0.0,
            0.0,
            0.0
          ]
        }
      },
      "name": "phong1"
    },
    {
      "doubleSided": true,
      "extensions": {
        "KHR_materials_pbrSpecularGlossiness": {
          "diffuseFactor": [
            1.0,
            1.0,
            1.0,
            1.0
          ],
          "diffuseTexture": {
            "index": 0
          },
          "glossinessFactor": 1.0,
          "specularFactor": [
            0.0,
            0.0,
            0.0
          ],
          "specularGlossinessTexture": {
            "index": 1
          }
        }
      },
      "name": "wood_attempt_2",
      "normalTexture": {
        "index": 2
      },
      "occlusionTexture": {
        "index": 3,
        "strength": 0.8896727916862054
      }
    },
    {
      "doubleSided": true,
      "extensions": {
        "KHR_materials_pbrSpecularGlossiness": {
          "diffuseFactor": [
            1.0,
            1.0,
            1.0,
            1.0
          ],
          "glossinessFactor": 0.4,
          "specularFactor": [
            0.0,
            0.0,
            0.0
          ]
        }
      },
      "name": "lambert1"
    },
    {
      "doubleSided": true,
      "extensions": {
        "KHR_materials_pbrSpecularGlossiness": {
          "diffuseFactor": [
            0.5,
            0.5,
            0.5,
            1.0
          ],
          "glossinessFactor": 0.4,
          "specularFactor": [
            0.0,
            0.0,
            0.0
          ]
        }
      },
      "name": "Default_Material"
    },
    {
      "doubleSided": true,
      "extensions": {
        "KHR_materials_pbrSpecularGlossiness": {
          "diffuseFactor": [
            1.0,
            1.0,
            1.0,
            1.0
          ],
          "diffuseTexture": {
            "index": 4
          },
          "glossinessFactor": 1.0,
          "specularFactor": [
            0.0,
            0.0,
            0.0
          ],
          "specularGlossinessTexture": {
            "index": 1
          }
        }
      },
      "name": "texture_for_writing_1",
      "normalTexture": {
        "index": 5
      },
      "occlusionTexture": {
        "index": 6
      }
    }
  ],
  "meshes": [
    {
      "name": "pCube4143_phong1_0",
      "primitives": [
        {
          "attributes": {
            "NORMAL": 1,
            "POSITION": 0,
            "TEXCOORD_0": 2
          },
          "indices": 3,
          "material": 0,
          "mode": 4
        }
      ]
    },
    {
      "name": "pCube4143_wood_attempt_2_0",
      "primitives": [
        {
          "attributes": {
            "NORMAL": 5,
            "POSITION": 4,
            "TANGENT": 6,
            "TEXCOORD_0": 7
          },
          "indices": 8,
          "material": 1,
          "mode": 4
        }
      ]
    },
    {
      "name": "pCube4143_wood_attempt_2_0",
      "primitives": [
        {
          "attributes": {
            "NORMAL": 10,
            "POSITION": 9,
            "TANGENT": 11,
            "TEXCOORD_0": 12
          },
          "indices": 13,
          "material": 1,
          "mode": 4
        }
      ]
    },
    {
      "name": "pCube4143_lambert1_0",
      "primitives": [
        {
          "attributes": {
            "NORMAL": 15,
            "POSITION": 14,
            "TEXCOORD_0": 16
          },
          "indices": 17,
          "material": 2,
          "mode": 4
        }
      ]
    },
    {
      "name": "pCube4143_Default_Material_0",
      "primitives": [
        {
          "attributes": {
            "NORMAL": 19,
            "POSITION": 18,
            "TEXCOORD_0": 20
          },
          "indices": 21,
          "material": 3,
          "mode": 4
        }
      ]
    },
    {
      "name": "pCube4143_texture_for_writing_1_0",
      "primitives": [
        {
          "attributes": {
            "NORMAL": 23,
            "POSITION": 22,
            "TANGENT": 24,
            "TEXCOORD_0": 25
          },
          "indices": 26,
          "material": 4,
          "mode": 4
        }
      ]
    }
  ],
  "nodes": [
    {
      "children": [
        1
      ],
      "matrix": [
        1.0,
        0.0,
        0.0,
        0.0,
        0.0,
        2.220446049250313e-16,
        -1.0,
        0.0,
        0.0,
        1.0,
        2.220446049250313e-16,
        0.0,
        0.0,
        0.0,
        0.0,
        1.0
      ],
      "name": "Sketchfab_model"
    },
    {
      "children": [
        2
      ],
      "matrix": [
        0.009999999776482582,
        0.0,
        0.0,
        0.0,
        0.0,
        0.0,
        0.009999999776482582,
        0.0,
        0.0,
        -0.009999999776482582,
        0.0,
        0.0,
        0.0,
        0.0,
        0.0,
        1.0
      ],
      "name": "6baf3a18052048e29511d6aa856f2d93.fbx"
    },
    {
      "children": [
        3
      ],
      "name": "RootNode"
    },
    {
      "children": [
        4,
        5,
        6,
        7,
        8,
        9
      ],
      "matrix": [
        1.0,
        0.0,
        0.0,
        0.0,
        0.0,
        1.0,
        0.0,
        0.0,
        0.0,
        0.0,
        1.0,
        0.0,
        44.43490982055664,
        0.0,
        -70.739013671875,
        1.0
      ],
      "name": "pCube4143"
    },
    {
      "mesh": 0,
      "name": "pCube4143_phong1_0"
    },
    {
      "mesh": 1,
      "name": "pCube4143_wood_attempt_2_0"
    },
    {
      "mesh": 2,
      "name": "pCube4143_wood_attempt_2_0"
    },
    {
      "mesh": 3,
      "name": "pCube4143_lambert1_0"
    },
    {
      "mesh": 4,
      "name": "pCube4143_Default_Material_0"
    },
    {
      "mesh": 5,
      "name": "pCube4143_texture_for_writing_1_0"
    }
  ],
  "samplers": [
    {
      "magFilter": 9729,
      "minFilter": 9987,
      "wrapS": 10497,
      "wrapT": 10497
    }
  ],
  "scene": 0,
  "scenes": [
    {
      "name": "Sketchfab_Scene",
      "nodes": [
        0
      ]
    }
  ],
  "textures": [
    {
      "sampler": 0,
      "source": 0
    },
    {
      "sampler": 0,
      "source": 1
    },
    {
      "sampler": 0,
      "source": 2
    },
    {
      "sampler": 0,
      "source": 3
    },
    {
      "sampler": 0,
      "source": 4
    },
    {
      "sampler": 0,
      "source": 5
    },
    {
      "sampler": 0,
      "source": 6
    }
  ]
}
